<svg xmlns="http://www.w3.org/2000/svg" viewBox="0 0 24 24">
  <path fill="#334155" d="M19.14 12.94a7.49 7.49 0 0 0 .05-.94 7.49 7.49 0 0 0-.05-.94l2.03-1.58a.5.5 0 0 0 .12-.63l-1.92-3.32a.5.5 0 0 0-.6-.22l-2.39.96a7.19 7.19 0 0 0-1.63-.94l-.36-2.54a.5.5 0 0 0-.5-.42h-3.84a.5.5 0 0 0-.5.42l-.36 2.54a7.19 7.19 0 0 0-1.63.94l-2.39-.96a.5.5 0 0 0-.6.22L2.7 8.85a.5.5 0 0 0 .12.63l2.03 1.58a7.49 7.49 0 0 0-.05.94 7.49 7.49 0 0 0 .05.94L2.82 14.52a.5.5 0 0 0-.12.63l1.92 3.32a.5.5 0 0 0 .6.22l2.39-.96c.5.39 1.05.71 1.63.94l.36 2.54a.5.5 0 0 0 .5.42h3.84a.5.5 0 0 0 .5-.42l.36-2.54c.58-.23 1.13-.55 1.63-.94l2.39.96a.5.5 0 0 0 .6-.22l1.92-3.32a.5.5 0 0 0-.12-.63zM12 15.5A3.5 3.5 0 1 1 12 8.5a3.5 3.5 0 0 1 0 7z"/>
</svg>
